<?xml version="1.0" encoding="UTF-8" standalone="no"?>
<svg
   xmlns:dc="http://purl.org/dc/elements/1.1/"
   xmlns:cc="http://creativecommons.org/ns#"
   xmlns:rdf="http://www.w3.org/1999/02/22-rdf-syntax-ns#"
   xmlns:svg="http://www.w3.org/2000/svg"
   xmlns="http://www.w3.org/2000/svg"
   xmlns:xlink="http://www.w3.org/1999/xlink"
   xmlns:sodipodi="http://sodipodi.sourceforge.net/DTD/sodipodi-0.dtd"
   xmlns:inkscape="http://www.inkscape.org/namespaces/inkscape"
   width="120"
   height="120"
   viewBox="0 0 120 120"
   version="1.1"
   id="svg4"
   sodipodi:docname="icon_v2.svg"
   inkscape:version="0.92.2 2405546, 2018-03-11"
   style="enable-background:new"
   inkscape:export-filename="/home/wolfgang/Develop/RandomWallpaperGnome3/assets/icon.svg.png"
   inkscape:export-xdpi="212"
   inkscape:export-ydpi="212">
  <metadata
     id="metadata10">
    <rdf:RDF>
      <cc:Work
         rdf:about="">
        <dc:format>image/svg+xml</dc:format>
        <dc:type
           rdf:resource="http://purl.org/dc/dcmitype/StillImage" />
        <dc:title></dc:title>
      </cc:Work>
    </rdf:RDF>
  </metadata>
  <defs
     id="defs8">
    <linearGradient
       inkscape:collect="always"
       id="linearGradient4545">
      <stop
         style="stop-color:#000000;stop-opacity:1;"
         offset="0"
         id="stop4541" />
      <stop
         style="stop-color:#000000;stop-opacity:0;"
         offset="1"
         id="stop4543" />
    </linearGradient>
    <linearGradient
       inkscape:collect="always"
       xlink:href="#linearGradient4545"
       id="linearGradient4547"
       x1="0"
       y1="12"
       x2="24"
       y2="12"
       gradientUnits="userSpaceOnUse" />
    <filter
       inkscape:collect="always"
       style="color-interpolation-filters:sRGB"
       id="filter852">
      <feBlend
         inkscape:collect="always"
         mode="multiply"
         in2="BackgroundImage"
         id="feBlend854" />
    </filter>
  </defs>
  <sodipodi:namedview
     pagecolor="#ffffff"
     bordercolor="#666666"
     borderopacity="1"
     objecttolerance="10"
     gridtolerance="10"
     guidetolerance="10"
     inkscape:pageopacity="0"
     inkscape:pageshadow="2"
     inkscape:window-width="1920"
     inkscape:window-height="1172"
     id="namedview6"
     showgrid="false"
     inkscape:zoom="2.3350001"
     inkscape:cx="-73.129975"
     inkscape:cy="-22.174101"
     inkscape:window-x="0"
     inkscape:window-y="28"
     inkscape:window-maximized="1"
     inkscape:current-layer="svg4"
     fit-margin-top="10"
     fit-margin-left="10"
     fit-margin-right="10"
     fit-margin-bottom="10" />
  <g
     inkscape:groupmode="layer"
     id="layer1"
     inkscape:label="Layer 1"
     style="display:inline"
     transform="translate(10,10)" />
  <g
     inkscape:groupmode="layer"
     id="layer2"
     inkscape:label="Layer 2"
     style="display:inline;opacity:1"
     transform="translate(10,10)" />
  <g
     id="g1257"
     transform="translate(10,10)">
    <path
       id="rect4614"
       style="fill:#326679;fill-opacity:1;stroke:none;stroke-width:11.24918652;stroke-linecap:round;stroke-linejoin:round;stroke-miterlimit:4;stroke-dasharray:none;stroke-opacity:1;paint-order:stroke fill markers"
       d="m 22.132812,25.824219 c -0.808185,0.0011 -1.475462,0.668376 -1.476562,1.476562 v 44.121094 c 0.0011,0.808179 0.663704,1.481322 1.476562,1.482422 h 55.734376 c 0.812856,-0.0011 1.475462,-0.674239 1.476562,-1.482422 V 27.300781 c -0.0011,-0.808189 -0.668375,-1.475462 -1.476562,-1.476562 z m 31.785157,10.628906 8.666015,2.931641 -6.039062,6.871093 -0.986328,-3.675781 c -5.578248,1.494688 -6.167418,4.933346 -6.847656,8.914063 -0.730238,4.264682 -1.553892,9.098413 -8.81836,11.044921 l -2.451172,0.65625 -0.65625,-2.451171 2.451172,-0.65625 c 5.69344,-1.525554 6.285112,-4.999405 6.972656,-9.021485 0.724069,-4.22888 1.54409,-9.021858 8.69336,-10.9375 z m -14.376953,8.412109 c 2.06771,0.104266 3.689143,0.799733 5.052734,1.777344 -0.288344,0.93362 -0.494193,1.855058 -0.65625,2.720703 -1.873113,-1.657387 -4.148218,-2.557714 -7.986328,-1.529297 l -2.449219,0.65625 -0.658203,-2.451172 2.451172,-0.65625 c 1.603807,-0.429738 3.005467,-0.580137 4.246094,-0.517578 z m 18.316406,6.292969 8.666016,2.931641 -6.039063,6.871094 L 59.5,57.285156 c -4.227803,1.132836 -7.032531,0.283284 -9.193359,-1.28125 0.290797,-0.934276 0.498041,-1.853122 0.660156,-2.71875 1.856434,1.653971 4.095715,2.561486 7.875,1.548828 z M 42.101562,74.59375 c -0.429336,0.0011 -0.835273,0.190404 -1.113281,0.511719 l -6.039062,4.630859 c -0.397699,0.463058 -0.447658,1.093346 -0.226563,1.578125 0.221095,0.484777 0.729383,0.858528 1.339844,0.861328 h 27.875 c 0.610478,-0.0029 1.11875,-0.376541 1.339844,-0.861328 0.221092,-0.484788 0.171144,-1.115063 -0.226563,-1.578125 L 59.011719,75.105469 C 58.733714,74.784146 58.327809,74.59485 57.898438,74.59375 Z M 50,0 A 50,50 0 0 0 0,50 50,50 0 0 0 50,100 50,50 0 0 0 100,50 50,50 0 0 0 50,0 Z m 0,6.1328125 A 43.867611,43.867611 0 0 1 93.867188,50 43.867611,43.867611 0 0 1 50,93.867188 43.867611,43.867611 0 0 1 6.1328125,50 43.867611,43.867611 0 0 1 50,6.1328125 Z"
       inkscape:connector-curvature="0" />
  </g>
</svg>
